<mxfile host="app.diagrams.net" modified="2023-04-26T08:03:03.968Z" agent="Mozilla/5.0 (Windows NT 10.0; Win64; x64) AppleWebKit/537.36 (KHTML, like Gecko) Chrome/112.0.0.0 Safari/537.36" version="21.2.2" etag="2NjwRmvV_ajw8lOa0QwC" type="github">
  <diagram name="第 1 页" id="jyMRRlD6wiFaFwituv-O">
    <mxGraphModel>
      <root>
        <mxCell id="0" />
        <mxCell id="1" parent="0" />
      </root>
    </mxGraphModel>
  </diagram>
</mxfile>
